HIERARCHY
ROOT Hips
{
	OFFSET 0.000000 0.000000 0.000000 
	CHANNELS 6 Xposition Yposition Zposition Zrotation Yrotation Xrotation
	JOINT LeftUpLeg
	{
		OFFSET 1.363060 -1.794630 0.839290 
		CHANNELS 3 Zrotation Yrotation Xrotation
		JOINT LeftLeg
		{
			OFFSET 2.448110 -6.726130 0.000000 
			CHANNELS 3 Zrotation Yrotation Xrotation
			JOINT LeftFoot
			{
				OFFSET 2.562200 -7.039590 0.000000 
				CHANNELS 3 Zrotation Yrotation Xrotation
				JOINT LeftToeBase
				{
					OFFSET 0.157640 -0.433110 2.322550 
					CHANNELS 3 Zrotation Yrotation Xrotation
					End Site
					{
						OFFSET 0.000000 0.000000 0.000000 
					}
				}
			}
		}
	}
	JOINT RightUpLeg
	{
		OFFSET -1.305520 -1.794630 0.839290 
		CHANNELS 3 Zrotation Yrotation Xrotation
		JOINT RightLeg
		{
			OFFSET -2.542530 -6.985550 0.000000 
			CHANNELS 3 Zrotation Yrotation Xrotation
			JOINT RightFoot
			{
				OFFSET -2.568260 -7.056230 0.000000 
				CHANNELS 3 Zrotation Yrotation Xrotation
				JOINT RightToeBase
				{
					OFFSET -0.164730 -0.452590 2.363150 
					CHANNELS 3 Zrotation Yrotation Xrotation
					End Site
					{
						OFFSET 0.000000 0.000000 0.000000 
					}
				}
			}
		}
	}
	JOINT Spine
	{
		OFFSET 0.028270 2.035590 -0.193380 
		CHANNELS 3 Zrotation Yrotation Xrotation
		JOINT Spine1
		{
			OFFSET 0.056720 2.048850 -0.042750 
			CHANNELS 3 Zrotation Yrotation Xrotation
			JOINT Neck1
			{
				OFFSET -0.054170 1.746240 0.172020 
				CHANNELS 3 Zrotation Yrotation Xrotation
				JOINT Head
				{
					OFFSET 0.104070 1.761360 -0.123970 
					CHANNELS 3 Zrotation Yrotation Xrotation
					End Site
					{
						OFFSET 0.000000 0.000000 0.000000 
					}
				}
			}
			JOINT LeftArm
			{
				OFFSET 3.362410 1.200890 -0.311210 
				CHANNELS 3 Zrotation Yrotation Xrotation
				JOINT LeftForeArm
				{
					OFFSET 4.983000 -0.000000 -0.000000 
					CHANNELS 3 Zrotation Yrotation Xrotation
					JOINT LeftHand
					{
						OFFSET 3.483560 -0.000000 -0.000000 
						CHANNELS 3 Zrotation Yrotation Xrotation
						JOINT LeftHandIndex1
						{
							OFFSET 0.715260 -0.000000 -0.000000 
							CHANNELS 3 Zrotation Yrotation Xrotation
							End Site
							{
								OFFSET 0.000000 0.000000 0.000000 
							}
						}
					}
				}
			}
			JOINT RightArm
			{
				OFFSET -3.136600 1.374050 -0.404650 
				CHANNELS 3 Zrotation Yrotation Xrotation
				JOINT RightForeArm
				{
					OFFSET -5.241900 -0.000000 -0.000000 
					CHANNELS 3 Zrotation Yrotation Xrotation
					JOINT RightHand
					{
						OFFSET -3.444170 -0.000000 -0.000000 
						CHANNELS 3 Zrotation Yrotation Xrotation
						JOINT RightHandIndex1
						{
							OFFSET -0.622530 -0.000000 -0.000000 
							CHANNELS 3 Zrotation Yrotation Xrotation
							End Site
							{
								OFFSET 0.000000 0.000000 0.000000 
							}
						}
					}
				}
			}
		}
	}
}
MOTION
Frames: 18
Frame Time: 0.041667
-5.770103 17.785721 8.457074 -6.987345 55.469403 -4.847667 -14.094801 -5.210076 -23.033705 -1.576484 3.813347 10.656938 -1.688445 11.441403 3.588348 0.243200 3.173600 8.762500 21.823987 -5.341308 10.442260 -0.037437 -3.907630 12.808062 2.083359 -11.451425 -5.720015 -0.319800 3.635100 -10.052400 1.651913 3.920881 1.502002 -2.491273 2.027583 -4.339700 6.037915 -4.796552 19.954999 4.212600 -2.675300 14.048800 -85.490778 7.160475 16.790949 12.319266 -17.231567 -2.086888 -1.315294 -2.211658 10.934577 -7.125000 0.000000 0.000000 78.970799 2.468654 16.097996 -18.954217 27.540438 -4.884948 0.427453 -0.060176 2.591678 7.125000 0.000000 0.000000 
-5.649176 17.775327 8.521136 -7.203310 55.802254 -5.098311 -14.392333 -4.694412 -22.970238 -1.522708 4.011899 11.206543 -1.682132 11.417779 3.687956 0.315000 3.607900 9.976000 21.915967 -5.348979 10.816594 -0.081105 -4.064826 13.245887 2.135710 -11.697577 -5.778977 -0.314400 3.604700 -9.967200 1.716185 3.951331 1.544833 -2.393352 2.044354 -4.268180 5.939411 -4.861594 20.087923 4.145400 -2.705900 14.142400 -85.660674 7.231881 17.698710 12.300408 -17.199545 -2.078563 -1.359572 -2.326244 11.357377 -7.125000 0.000000 0.000000 78.905394 2.545506 15.648260 -19.074924 27.701494 -4.947185 0.416181 -0.061456 2.623335 7.125000 0.000000 0.000000 
-5.523053 17.762535 8.583098 -7.333788 56.102471 -5.345225 -14.620740 -4.537694 -22.774268 -1.446860 4.283482 11.959922 -1.703457 11.555602 3.813217 0.285300 3.435200 9.492900 21.877781 -5.540430 11.285411 -0.115179 -4.159799 13.514443 2.145072 -11.731569 -5.571561 -0.271400 3.351000 -9.257600 1.747200 4.005902 1.576682 -2.386008 2.070741 -4.249851 5.894368 -4.935887 20.124398 4.091400 -2.729500 14.152400 -85.779124 7.112311 17.262137 12.142338 -16.940067 -2.011017 -1.345738 -2.346998 11.907409 -7.125000 0.000000 0.000000 78.876778 2.576017 15.276314 -19.160557 27.809032 -4.988199 0.417528 -0.057811 2.404422 7.125000 0.000000 0.000000 
-5.394431 17.759037 8.647759 -7.479199 56.320966 -5.617029 -14.857692 -4.163790 -22.643725 -1.364587 4.552000 12.703234 -1.707875 11.633387 4.075242 0.283800 3.426300 9.467800 21.914925 -5.583096 11.828330 -0.144010 -4.243517 13.739753 2.207556 -12.000539 -5.262896 -0.260800 3.285600 -9.074800 1.790837 4.078124 1.610567 -2.342623 2.103937 -4.219621 5.983976 -4.984744 20.084330 4.122700 -2.740100 14.116400 -85.944676 6.923012 16.423368 11.931050 -16.599082 -1.919908 -1.419718 -2.337516 13.046152 -7.125000 0.000000 0.000000 78.866489 2.520756 15.069839 -19.295411 27.974400 -5.052456 0.427054 -0.054399 2.102471 7.125000 0.000000 0.000000 
-5.261311 17.771229 8.717017 -7.674422 56.563195 -5.970472 -15.011142 -3.804799 -22.406133 -1.305651 4.726107 13.178757 -1.770293 12.072439 4.429499 0.471400 4.403300 12.214200 22.012104 -5.615291 12.316582 -0.195475 -4.403624 14.178574 2.277056 -12.307672 -4.958935 -0.305500 3.553500 -9.823800 1.803138 4.132533 1.618046 -2.351159 2.127485 -4.245015 6.081430 -5.092878 20.148558 4.139600 -2.766800 14.137600 -85.952494 6.966171 16.257328 11.847744 -16.474029 -1.886134 -1.461718 -2.347035 13.608889 -7.125000 0.000000 0.000000 79.008226 2.335797 14.824151 -19.454310 28.175132 -5.133073 0.427757 -0.056265 1.990754 7.125000 0.000000 0.000000 
-5.125594 17.780424 8.780878 -7.473923 56.866166 -5.881487 -15.373205 -3.541896 -22.298869 -1.266673 4.821883 13.424396 -1.821512 12.661140 5.313374 0.489200 4.484600 12.444200 21.870350 -5.582798 12.580759 -0.276027 -4.649452 14.854051 2.360325 -12.673496 -4.495502 -0.458800 4.345000 -12.049400 1.739136 4.160570 1.576934 -2.389064 2.140577 -4.299852 6.193231 -5.196406 20.169510 4.145900 -2.779300 14.107100 -85.871737 7.040250 16.193844 11.764209 -16.343909 -1.856327 -1.426042 -2.310411 13.855922 -7.125000 0.000000 0.000000 79.213033 2.136586 14.490398 -19.546351 28.292987 -5.181081 0.423129 -0.057691 2.022045 7.125000 0.000000 0.000000 
-4.984379 17.784022 8.835645 -6.782315 57.067647 -5.278837 -16.040918 -3.116856 -22.267857 -1.253836 4.823754 13.434141 -1.774372 12.771898 6.240227 0.315600 3.611100 9.984900 21.365529 -5.418509 12.553369 -0.397437 -5.008573 15.857200 2.380671 -12.763016 -4.038119 -0.518600 4.615500 -12.815000 1.621781 4.270798 1.467324 -2.456977 2.193921 -4.472271 6.294728 -5.301731 20.408805 4.191300 -2.816900 14.203900 -85.819921 7.210502 16.094239 11.693090 -16.231316 -1.831746 -1.375115 -2.271993 13.961425 -7.125000 0.000000 0.000000 79.352277 1.855917 13.976664 -19.552915 28.304965 -5.184429 0.417506 -0.068056 2.187790 7.125000 0.000000 0.000000 
-4.840866 17.799412 8.891711 -6.242038 57.276192 -4.818944 -16.535218 -2.822381 -21.921250 -1.278397 4.692250 13.114540 -1.665059 12.425514 6.908927 0.292500 3.477800 9.611800 20.968645 -5.280028 12.229121 -0.578826 -5.521279 17.309024 2.392111 -12.827374 -3.652682 -0.445000 4.280000 -11.865600 1.534223 4.331236 1.367494 -2.523215 2.220320 -4.639797 6.373550 -5.356368 20.639491 4.247900 -2.844200 14.302600 -85.803186 7.429284 15.984695 11.676420 -16.210970 -1.825871 -1.366235 -2.267452 13.978196 -7.125000 0.000000 0.000000 79.486250 1.657493 13.658057 -19.449023 28.167784 -5.126180 0.427901 -0.076950 2.228840 7.125000 0.000000 0.000000 
-4.695954 17.819200 8.950875 -5.578821 57.686490 -4.233169 -17.179492 -2.385494 -21.519179 -1.311499 4.488643 12.642469 -1.371743 11.116588 7.973868 0.408000 4.100500 11.359500 20.532019 -5.299247 11.667308 -0.812438 -6.126568 19.046612 2.411300 -12.938719 -3.222344 -0.425200 4.185000 -11.597900 1.482577 4.267611 1.294929 -2.422230 2.188514 -4.718027 6.477152 -5.338734 20.727213 4.328400 -2.844400 14.291800 -85.973928 7.564263 15.364557 11.632362 -16.138497 -1.806272 -1.411040 -2.195702 14.320092 -7.125000 0.000000 0.000000 79.581705 1.494409 13.381554 -19.325519 28.001940 -5.057592 0.437165 -0.078831 2.482633 7.125000 0.000000 0.000000 
-4.553440 17.833392 9.010839 -4.694281 58.235898 -3.441719 -18.049629 -1.808593 -21.218085 -1.327683 4.318073 12.280374 -1.012886 9.406255 9.239560 0.551300 4.756500 13.215300 19.964566 -5.478944 11.013399 -1.078949 -6.749380 20.860176 2.427782 -13.055398 -2.585618 -0.453300 4.319300 -11.976800 1.404605 4.167544 1.278110 -2.271047 2.143792 -4.644659 6.598817 -5.383402 20.809178 4.402500 -2.863800 14.320300 -86.030938 7.499875 14.821288 11.588968 -16.069297 -1.787811 -1.430215 -2.154372 13.932978 -7.125000 0.000000 0.000000 79.750318 1.404970 12.915852 -19.307615 27.974862 -5.044682 0.442537 -0.077297 2.751848 7.125000 0.000000 0.000000 
-4.409827 17.848083 9.070703 -4.126094 58.774040 -2.959042 -18.749716 -1.229944 -20.863381 -1.332207 4.202422 12.054021 -0.778365 8.185302 10.012791 0.619800 5.038400 14.018000 19.610144 -5.599697 10.387336 -1.372716 -7.380739 22.722145 2.469153 -13.317540 -1.803223 -0.480400 4.445000 -12.332000 1.314110 4.075610 1.283382 -2.264068 2.100956 -4.534057 6.679944 -5.431553 20.950200 4.449200 -2.879100 14.418700 -85.901212 7.528710 15.051533 11.635337 -16.159403 -1.806363 -1.469128 -2.182740 13.407414 -7.125000 0.000000 0.000000 80.050350 1.396281 12.290133 -19.261982 27.920630 -5.020023 0.443379 -0.082994 2.873807 7.125000 0.000000 0.000000 
-4.265015 17.866072 9.123371 -3.929188 59.367151 -2.755878 -19.106129 -1.223586 -20.330026 -1.337616 4.137123 11.929622 -0.744592 7.975514 10.061589 0.556000 4.776300 13.271700 19.440236 -5.745391 9.627541 -1.696590 -8.017005 24.633006 2.504346 -13.598311 -0.819376 -0.469400 4.394500 -12.189200 1.279624 3.944617 1.248287 -2.305452 2.033633 -4.494932 6.634880 -5.393615 21.081729 4.435900 -2.865800 14.481900 -85.957974 7.538620 14.880336 11.655748 -16.191992 -1.811013 -1.489074 -2.206311 13.346829 -7.125000 0.000000 0.000000 80.277800 1.344564 11.748487 -19.152103 27.780930 -4.961488 0.446676 -0.089596 2.937742 7.125000 0.000000 0.000000 
-4.124001 17.887759 9.171741 -3.905930 60.017954 -2.781659 -19.347719 -1.319888 -19.717788 -1.339898 4.085906 11.841233 -0.727571 7.853777 10.071131 0.450800 4.307400 11.943000 19.329326 -5.999475 8.782465 -2.058947 -8.660797 26.608028 2.488451 -13.743463 0.620995 -0.437400 4.244000 -11.764000 1.251899 3.820689 1.196116 -2.407648 1.967620 -4.564264 6.498274 -5.400193 21.161637 4.343200 -2.865200 14.476300 -85.991223 7.531949 14.506167 11.636524 -16.148788 -1.803669 -1.433107 -2.147462 13.568427 -7.125000 0.000000 0.000000 80.624344 1.177696 11.055894 -19.086089 27.694430 -4.925810 0.446094 -0.090745 3.219721 7.125000 0.000000 0.000000 
-3.987483 17.904449 9.222111 -3.885341 60.646392 -2.897990 -19.613938 -1.210403 -19.111714 -1.340827 4.024266 11.732622 -0.684028 7.544205 10.098838 0.464000 4.369300 12.118000 19.237617 -6.206515 7.965246 -2.461397 -9.318880 28.661628 2.476148 -14.037601 2.330021 -0.337200 3.731800 -10.323200 1.268830 3.692144 1.172918 -2.364112 1.899524 -4.649921 6.453535 -5.387688 21.274319 4.325400 -2.864100 14.507000 -86.035515 7.550951 14.307856 11.650667 -16.162827 -1.809593 -1.394092 -2.110303 13.696941 -7.125000 0.000000 0.000000 80.884324 0.965402 10.483892 -19.071331 27.673140 -4.916327 0.444047 -0.094438 3.504104 7.125000 0.000000 0.000000 
-3.848767 17.923137 9.273080 -3.606131 61.268058 -2.744465 -20.061632 -0.823659 -18.612543 -1.341013 3.938193 11.577611 -0.571489 6.752622 10.204465 0.523800 4.638100 12.879300 19.017855 -6.326294 7.066740 -2.903379 -9.985391 30.783351 2.426992 -14.342422 4.335500 -0.218100 3.006700 -8.297300 1.295698 3.537181 1.186955 -2.198249 1.822155 -4.616072 6.403616 -5.372974 21.440323 4.327200 -2.875500 14.611600 -86.168594 7.482903 14.274228 11.702995 -16.237903 -1.826483 -1.407896 -2.136671 13.622033 -7.125000 0.000000 0.000000 81.016229 0.815763 9.987465 -19.056993 27.654240 -4.906979 0.442558 -0.097619 3.723051 7.125000 0.000000 0.000000 
-3.711251 17.941726 9.316753 -3.374662 61.877358 -2.643530 -20.498705 -0.334757 -18.141171 -1.340135 3.840398 11.396392 -0.430213 5.727911 10.364678 0.571600 4.841700 13.457500 18.770128 -6.466363 6.038658 -3.383303 -10.647821 32.937341 2.339845 -14.755334 6.755820 -0.079600 1.820000 -5.008500 1.301082 3.371079 1.230720 -2.162990 1.737074 -4.536346 6.432698 -5.326468 21.522007 4.380600 -2.870400 14.694700 -86.288522 7.280926 14.305409 11.766454 -16.319365 -1.847535 -1.397374 -2.156304 13.675162 -7.125000 0.000000 0.000000 81.119702 0.754693 9.750925 -19.046090 27.638959 -4.900773 0.441490 -0.089964 3.557861 7.125000 0.000000 0.000000 
-3.574833 17.958116 9.361526 -3.278663 62.369297 -2.669343 -20.800444 -0.003339 -17.595770 -1.340803 3.743638 11.209339 -0.323242 4.911919 10.497766 0.600000 4.958600 13.790600 18.579410 -6.438262 4.929116 -3.895950 -11.305766 35.111930 2.280723 -15.554672 9.188271 -0.000200 -0.093600 0.257200 1.326682 3.330586 1.277108 -2.124714 1.712486 -4.467107 6.473754 -5.341489 21.519622 4.429400 -2.890900 14.724200 -86.363092 7.130034 14.731287 11.844428 -16.424872 -1.877630 -1.374398 -2.176895 13.589167 -7.125000 0.000000 0.000000 81.253917 0.573514 9.498592 -19.156216 27.780046 -4.956630 0.439248 -0.083400 3.201107 7.125000 0.000000 0.000000 
-3.437716 17.969509 9.409097 -3.070272 62.757045 -2.637066 -21.058785 0.072780 -16.869984 -1.345676 3.650013 11.020823 -0.294026 4.576966 10.364142 0.640000 5.118000 14.245500 18.311429 -6.327725 3.873234 -4.437299 -11.953063 37.324544 2.153942 -16.219952 11.560363 -0.042800 -1.335600 3.672800 1.332030 3.301598 1.327100 -2.066473 1.695756 -4.401962 6.407006 -5.338971 21.475600 4.392000 -2.894100 14.700700 -86.407950 6.962617 14.933637 11.897021 -16.497371 -1.897153 -1.392435 -2.175370 13.664879 -7.125000 0.000000 0.000000 81.485728 0.266697 9.360506 -19.305038 27.967760 -5.032479 0.438248 -0.078031 2.828664 7.125000 0.000000 0.000000 
